<?xml version="1.0" encoding="iso-8859-1"?>
<!-- Generator: Adobe Illustrator 19.1.0, SVG Export Plug-In . SVG Version: 6.00 Build 0)  -->
<svg xmlns="http://www.w3.org/2000/svg" xmlns:xlink="http://www.w3.org/1999/xlink" version="1.1" id="Capa_1" x="0px" y="0px" viewBox="0 0 64 64" style="enable-background:new 0 0 64 64;" xml:space="preserve" width="512px" height="512px">
<g>
	<g>
		<path d="M55.5,64V0h-44v7h-3v2h3v6h-3v2h3v6h-3v2h3v6h-3v2h3v6h-3v2h3v6h-3v2h3v6h-3v2h3v7H55.5z M53.5,62h-10V2h10V62z M13.5,49    h3v-2h-3v-6h3v-2h-3v-6h3v-2h-3v-6h3v-2h-3v-6h3v-2h-3V9h3V7h-3V2h28v60h-28v-5h3v-2h-3V49z" fill="#404040"/>
	</g>
</g>
<g>
</g>
<g>
</g>
<g>
</g>
<g>
</g>
<g>
</g>
<g>
</g>
<g>
</g>
<g>
</g>
<g>
</g>
<g>
</g>
<g>
</g>
<g>
</g>
<g>
</g>
<g>
</g>
<g>
</g>
</svg>
